<svg xmlns="http://www.w3.org/2000/svg" viewBox="0 0 512 512" width="512" height="512">
  <!-- Dark rounded background -->
  <rect x="0" y="0" width="512" height="512" rx="64" fill="#111111"/>
  <!-- Centered white keyboard glyph pushed left -->
  <g transform="translate(-5, 0) scale(16.5)">
    <path fill="#ffffff" d="M28 26H4a2 2 0 0 1-2-2V10a2 2 0 0 1 2-2h24a2 2 0 0 1 2 2v14a2 2 0 0 1-2 2M4 10v14h24V10Z"/>
    <path fill="#ffffff" d="M10 20h11v2H10zm-4-8h2v2H6zm4 0h2v2h-2zm4 0h2v2h-2zm4 0h2v2h-2zM6 20h2v2H6zm0-4h2v2H6zm4 0h2v2h-2zm4 0h2v2h-2zm8-4h4v2h-4zm0 4h4v2h-4zm-4 0h2v2h-2zm5 4h3v2h-3z"/>
  </g>
</svg>
